<mxfile host="app.diagrams.net" modified="2023-04-15T16:49:26.258Z" agent="Mozilla/5.0 (Windows NT 10.0; Win64; x64) AppleWebKit/537.36 (KHTML, like Gecko) Chrome/112.0.0.0 Safari/537.36" etag="xAUga820Q2XtKte0Ko4w" version="21.1.5" type="github">
  <diagram name="Page-1" id="qubaJ7ZJws6DonAjT17A">
    <mxGraphModel dx="1071" dy="564" grid="1" gridSize="10" guides="1" tooltips="1" connect="1" arrows="1" fold="1" page="1" pageScale="1" pageWidth="827" pageHeight="1169" math="0" shadow="0">
      <root>
        <mxCell id="0" />
        <mxCell id="1" parent="0" />
        <mxCell id="zzh0onPWr2OfqVlHUdTT-17" style="edgeStyle=orthogonalEdgeStyle;rounded=0;orthogonalLoop=1;jettySize=auto;html=1;exitX=1;exitY=0.25;exitDx=0;exitDy=0;entryX=0.999;entryY=0.896;entryDx=0;entryDy=0;entryPerimeter=0;shape=link;width=-0.5882352941176467;" edge="1" parent="1" source="zzh0onPWr2OfqVlHUdTT-2" target="zzh0onPWr2OfqVlHUdTT-3">
          <mxGeometry relative="1" as="geometry" />
        </mxCell>
        <mxCell id="zzh0onPWr2OfqVlHUdTT-2" value="&lt;div style=&quot;box-sizing:border-box;width:100%;background:#e4e4e4;padding:2px;&quot;&gt;&lt;span style=&quot;&quot;&gt;	&lt;/span&gt;TiposDePlatos&lt;/div&gt;&lt;table style=&quot;width:100%;font-size:1em;&quot; cellpadding=&quot;2&quot; cellspacing=&quot;0&quot;&gt;&lt;tbody&gt;&lt;tr&gt;&lt;td&gt;PK&lt;/td&gt;&lt;td&gt;TipoID&lt;/td&gt;&lt;td&gt;(Int)&lt;/td&gt;&lt;/tr&gt;&lt;tr&gt;&lt;td&gt;&lt;br&gt;&lt;/td&gt;&lt;td&gt;Nombre&lt;/td&gt;&lt;td&gt;(Varchar)&lt;br&gt;&lt;/td&gt;&lt;/tr&gt;&lt;/tbody&gt;&lt;/table&gt;" style="verticalAlign=top;align=left;overflow=fill;html=1;whiteSpace=wrap;" vertex="1" parent="1">
          <mxGeometry x="150" y="30" width="180" height="90" as="geometry" />
        </mxCell>
        <mxCell id="zzh0onPWr2OfqVlHUdTT-14" style="edgeStyle=orthogonalEdgeStyle;rounded=0;orthogonalLoop=1;jettySize=auto;html=1;exitX=0;exitY=0.25;exitDx=0;exitDy=0;entryX=0;entryY=0.5;entryDx=0;entryDy=0;shape=link;width=0;" edge="1" parent="1" source="zzh0onPWr2OfqVlHUdTT-3" target="zzh0onPWr2OfqVlHUdTT-6">
          <mxGeometry relative="1" as="geometry" />
        </mxCell>
        <mxCell id="zzh0onPWr2OfqVlHUdTT-3" value="&lt;div style=&quot;box-sizing:border-box;width:100%;background:#e4e4e4;padding:2px;&quot;&gt;&lt;span style=&quot;white-space: pre;&quot;&gt;	&lt;/span&gt;&lt;span style=&quot;white-space: pre;&quot;&gt;	&lt;/span&gt;Recetas&lt;/div&gt;&lt;table style=&quot;width:100%;font-size:1em;&quot; cellpadding=&quot;2&quot; cellspacing=&quot;0&quot;&gt;&lt;tbody&gt;&lt;tr&gt;&lt;td&gt;PK&lt;/td&gt;&lt;td&gt;RecetaID&lt;/td&gt;&lt;td&gt;(Int)&lt;/td&gt;&lt;/tr&gt;&lt;tr&gt;&lt;td&gt;&lt;br&gt;&lt;/td&gt;&lt;td&gt;Nombre&lt;/td&gt;&lt;td&gt;(Varchar)&lt;/td&gt;&lt;/tr&gt;&lt;tr&gt;&lt;td&gt;&lt;br&gt;&lt;/td&gt;&lt;td&gt;Preparación&lt;/td&gt;&lt;td&gt;(Varchar)&lt;/td&gt;&lt;/tr&gt;&lt;tr&gt;&lt;td&gt;&lt;br&gt;&lt;/td&gt;&lt;td&gt;Duración&lt;/td&gt;&lt;td&gt;(Int)&lt;/td&gt;&lt;/tr&gt;&lt;tr&gt;&lt;td&gt;&lt;br&gt;&lt;/td&gt;&lt;td&gt;Comentarios&lt;/td&gt;&lt;td&gt;(Varchar)&lt;/td&gt;&lt;/tr&gt;&lt;tr&gt;&lt;td&gt;FK&lt;/td&gt;&lt;td&gt;TipoID&lt;/td&gt;&lt;td&gt;(Int)&lt;/td&gt;&lt;/tr&gt;&lt;/tbody&gt;&lt;/table&gt;" style="verticalAlign=top;align=left;overflow=fill;html=1;whiteSpace=wrap;" vertex="1" parent="1">
          <mxGeometry x="110" y="140" width="180" height="130" as="geometry" />
        </mxCell>
        <mxCell id="zzh0onPWr2OfqVlHUdTT-5" value="&lt;div style=&quot;box-sizing:border-box;width:100%;background:#e4e4e4;padding:2px;&quot;&gt;&lt;span style=&quot;&quot;&gt;	&lt;/span&gt;&lt;span style=&quot;&quot;&gt;	&lt;/span&gt;Ingredientes&lt;/div&gt;&lt;table style=&quot;width:100%;font-size:1em;&quot; cellpadding=&quot;2&quot; cellspacing=&quot;0&quot;&gt;&lt;tbody&gt;&lt;tr&gt;&lt;td&gt;PK&lt;/td&gt;&lt;td&gt;IngredienteID&lt;/td&gt;&lt;td&gt;(Int)&lt;/td&gt;&lt;/tr&gt;&lt;tr&gt;&lt;td&gt;&lt;/td&gt;&lt;td&gt;Nombre&lt;/td&gt;&lt;td&gt;(Varchar)&lt;/td&gt;&lt;/tr&gt;&lt;tr&gt;&lt;td&gt;FK&lt;/td&gt;&lt;td&gt;UnidadID&lt;/td&gt;&lt;td&gt;(Int)&lt;/td&gt;&lt;/tr&gt;&lt;/tbody&gt;&lt;/table&gt;" style="verticalAlign=top;align=left;overflow=fill;html=1;whiteSpace=wrap;" vertex="1" parent="1">
          <mxGeometry x="440" y="180" width="180" height="90" as="geometry" />
        </mxCell>
        <mxCell id="zzh0onPWr2OfqVlHUdTT-13" style="edgeStyle=orthogonalEdgeStyle;rounded=0;orthogonalLoop=1;jettySize=auto;html=1;exitX=1;exitY=0.75;exitDx=0;exitDy=0;entryX=0;entryY=0.25;entryDx=0;entryDy=0;shape=link;width=0.5882352941176467;" edge="1" parent="1" source="zzh0onPWr2OfqVlHUdTT-6" target="zzh0onPWr2OfqVlHUdTT-5">
          <mxGeometry relative="1" as="geometry" />
        </mxCell>
        <mxCell id="zzh0onPWr2OfqVlHUdTT-6" value="&lt;div style=&quot;box-sizing:border-box;width:100%;background:#e4e4e4;padding:2px;&quot;&gt;Receta_Ingredientes&lt;/div&gt;&lt;table style=&quot;width:100%;font-size:1em;&quot; cellpadding=&quot;2&quot; cellspacing=&quot;0&quot;&gt;&lt;tbody&gt;&lt;tr&gt;&lt;td&gt;PK&lt;/td&gt;&lt;td&gt;Receta_IngredientesID&lt;/td&gt;&lt;td&gt;(Int)&lt;/td&gt;&lt;/tr&gt;&lt;tr&gt;&lt;td&gt;FK1&lt;/td&gt;&lt;td&gt;RecetaID&lt;/td&gt;&lt;td&gt;(Int)&lt;/td&gt;&lt;/tr&gt;&lt;tr&gt;&lt;td&gt;FK2&lt;/td&gt;&lt;td&gt;IngredientesID&lt;/td&gt;&lt;td&gt;(Int)&lt;/td&gt;&lt;/tr&gt;&lt;tr&gt;&lt;td&gt;&lt;br&gt;&lt;/td&gt;&lt;td&gt;Cantidad&lt;/td&gt;&lt;td&gt;(Varchar)&lt;/td&gt;&lt;/tr&gt;&lt;/tbody&gt;&lt;/table&gt;" style="verticalAlign=top;align=left;overflow=fill;html=1;whiteSpace=wrap;" vertex="1" parent="1">
          <mxGeometry x="180" y="300" width="210" height="91" as="geometry" />
        </mxCell>
        <mxCell id="zzh0onPWr2OfqVlHUdTT-18" style="edgeStyle=orthogonalEdgeStyle;rounded=0;orthogonalLoop=1;jettySize=auto;html=1;exitX=1;exitY=0.25;exitDx=0;exitDy=0;entryX=1;entryY=0.75;entryDx=0;entryDy=0;shape=link;width=-0.5882352941176467;" edge="1" parent="1" source="zzh0onPWr2OfqVlHUdTT-7" target="zzh0onPWr2OfqVlHUdTT-5">
          <mxGeometry relative="1" as="geometry" />
        </mxCell>
        <mxCell id="zzh0onPWr2OfqVlHUdTT-7" value="&lt;div style=&quot;box-sizing:border-box;width:100%;background:#e4e4e4;padding:2px;&quot;&gt;Unidades&lt;/div&gt;&lt;table style=&quot;width:100%;font-size:1em;&quot; cellpadding=&quot;2&quot; cellspacing=&quot;0&quot;&gt;&lt;tbody&gt;&lt;tr&gt;&lt;td&gt;PK&lt;/td&gt;&lt;td&gt;UnidadID&lt;/td&gt;&lt;td&gt;(Int)&lt;/td&gt;&lt;/tr&gt;&lt;tr&gt;&lt;td&gt;&lt;br&gt;&lt;/td&gt;&lt;td&gt;Nombre&lt;/td&gt;&lt;td&gt;(Varchar)&lt;/td&gt;&lt;/tr&gt;&lt;tr&gt;&lt;td&gt;&lt;/td&gt;&lt;td&gt;&lt;br&gt;&lt;/td&gt;&lt;td&gt;&lt;br&gt;&lt;/td&gt;&lt;/tr&gt;&lt;/tbody&gt;&lt;/table&gt;" style="verticalAlign=top;align=left;overflow=fill;html=1;whiteSpace=wrap;" vertex="1" parent="1">
          <mxGeometry x="420" y="40" width="180" height="90" as="geometry" />
        </mxCell>
      </root>
    </mxGraphModel>
  </diagram>
</mxfile>
